<svg width="36" height="40" viewBox="0 0 36 40" fill="none" xmlns="http://www.w3.org/2000/svg">
<g id="bookmarks_24px">
<path id="icon/action/bookmarks_24px" fill-rule="evenodd" clip-rule="evenodd" d="M28.5 1.66667H13.485C11.835 1.66667 10.5 3.16667 10.5 5.00001H25.5C27.15 5.00001 28.5 6.50001 28.5 8.33334V30L31.5 31.6667V5.00001C31.5 3.16667 30.15 1.66667 28.5 1.66667ZM22.5 11.6667V33.2833L16.185 30.2667L15 29.7L13.815 30.2667L7.5 33.2833V11.6667H22.5ZM7.5 8.33334H22.5C24.15 8.33334 25.5 9.83334 25.5 11.6667V38.3333L15 33.3333L4.5 38.3333V11.6667C4.5 9.83334 5.85 8.33334 7.5 8.33334Z" fill="#F4F4F4"/>
</g>
</svg>
