<svg width="42" height="45" viewBox="0 0 42 45" fill="none" xmlns="http://www.w3.org/2000/svg">
<g id="24 / symbols / github">
<path id="icon" fill-rule="evenodd" clip-rule="evenodd" d="M17.5302 37.5068C17.5393 37.7372 17.5161 37.9619 17.4708 38.1894C17.3912 38.5892 17.2376 39.0122 17.0202 39.403C16.402 40.5141 15.352 41.2555 14 41.2555C10.8152 41.2555 9.56521 39.5814 8.00017 35.3894C6.94021 32.5502 6.44017 31.8805 5.25 31.8805L5.25 28.1305C8.43483 28.1305 9.68479 29.8045 11.2498 33.9966C12.3098 36.8358 12.8098 37.5055 14 37.5055C14 36.9614 13.993 36.4795 13.9784 35.8269C13.9441 34.2973 13.9402 33.985 14.0024 33.5761C14.0273 32.6834 14.2424 32.05 14.6737 31.4214C10.7681 30.5104 8.13386 28.6291 6.62195 25.5776L6.05559 24.1506C5.50383 22.4516 5.25 20.5266 5.25 18.3034C5.25 15.743 5.97861 13.4537 7.33953 11.54C6.915 9.72098 6.97314 7.49854 7.91054 4.98863L8.21684 4.16849L9.00212 3.89936C9.10726 3.86333 9.23507 3.83078 9.38523 3.80553C10.9143 3.5484 13.0902 4.1619 15.9347 6.11408C17.6116 5.6976 19.3775 5.48733 21.1553 5.48733C22.7441 5.48733 24.324 5.65893 25.8329 5.99726C28.6004 4.14039 30.7164 3.558 32.2044 3.80586C32.3528 3.83059 32.4793 3.86251 32.5836 3.89794L33.3738 4.16641L33.6804 4.99155C34.5005 7.19793 34.6412 9.23131 34.3428 11.0105C35.9073 13.0219 36.75 15.4946 36.75 18.3034C36.75 20.6714 36.5917 22.452 36.1365 24.1843L35.6561 25.5969C34.3985 28.6451 31.6251 30.5475 27.3482 31.4536C27.7927 32.1131 28 32.7825 28 33.7555V35.6305C28 36.5391 28 36.5671 27.9981 37.5055C28.002 37.5729 28.0073 37.6059 28.013 37.6264C28.0116 37.627 28 41.2555 28 41.2555C26.5094 41.2555 25.401 40.4766 24.8559 39.248C24.5733 38.611 24.4888 38.0027 24.5 37.4789V33.7555C24.5 33.5983 24.4949 33.5892 24.1376 33.2063C23.1824 32.1829 22.75 31.4108 22.75 30.0055V28.3094L24.3251 28.1399C29.0139 27.6354 31.5639 26.2403 32.4094 24.2022L32.8046 23.0449C33.119 21.8348 33.25 20.3611 33.25 18.3034C33.25 16.117 32.5376 14.3109 31.1902 12.8679L30.4497 12.0747L30.7519 11.0005C31.0204 10.0463 31.0843 8.9171 30.8002 7.62918C30.753 7.642 30.7039 7.65596 30.653 7.67115C29.716 7.95066 28.5461 8.5504 27.1363 9.56005L26.4933 10.0205L25.7426 9.82111C24.2907 9.43537 22.7305 9.23733 21.1553 9.23733C19.4038 9.23733 17.6723 9.4761 16.0728 9.94331L15.2922 10.1713L14.6244 9.68186C13.1663 8.61314 11.955 7.97758 10.9837 7.68068C10.9144 7.65948 10.8483 7.64051 10.7855 7.62361C10.4467 9.1142 10.5807 10.3389 10.9239 11.2578L11.3354 12.3596L10.582 13.2297C9.38157 14.616 8.75 16.3031 8.75 18.3034C8.75 20.1349 8.9501 21.6524 9.31679 22.7955L9.77474 23.957C10.9195 26.2586 13.3511 27.6433 17.6865 28.1412L19.25 28.3207V30.0055C19.25 31.4108 18.8176 32.1829 17.8624 33.2063C17.5051 33.5892 17.5 33.5983 17.5 33.7555L17.4698 34.1021C17.4499 34.2158 17.4499 34.5093 17.4774 35.7368C17.4901 36.3013 17.4973 36.7481 17.4994 37.2151C17.5203 37.3117 17.5234 37.3741 17.5302 37.5068Z" fill="white"/>
</g>
</svg>
