<svg width="44" height="45" viewBox="0 0 44 45" fill="none" xmlns="http://www.w3.org/2000/svg">
<g id="24 / symbols / linkedin">
<path id="icon" fill-rule="evenodd" clip-rule="evenodd" d="M7.33317 3.75H36.6665C38.6915 3.75 40.3332 5.42893 40.3332 7.5V37.5C40.3332 39.5711 38.6915 41.25 36.6665 41.25H7.33317C5.30813 41.25 3.6665 39.5711 3.6665 37.5V7.5C3.6665 5.42893 5.30813 3.75 7.33317 3.75ZM7.33317 7.49997V37.5H36.6665V7.49997H7.33317ZM23.8332 16.875C22.884 16.875 21.8811 17.1718 20.9954 17.7228L20.1665 16.875H18.3332V30H21.9998V22.5C21.9998 21.4205 23.0888 20.625 23.8332 20.625H25.6665C26.4109 20.625 27.4998 21.4205 27.4998 22.5V30H31.1665V22.5C31.1665 19.026 28.2221 16.875 25.6665 16.875H23.8332ZM14.6665 15C15.679 15 16.4998 14.1606 16.4998 13.125C16.4998 12.0895 15.679 11.25 14.6665 11.25C13.654 11.25 12.8332 12.0895 12.8332 13.125C12.8332 14.1606 13.654 15 14.6665 15ZM12.8332 16.875V30H16.4998V16.875H12.8332Z" fill="white"/>
</g>
</svg>
