<svg width="65" height="62" viewBox="0 0 65 62" fill="none" xmlns="http://www.w3.org/2000/svg">
<g id="play_circle_filled_white_24px">
<path id="icon/av/play_circle_filled_white_24px" fill-rule="evenodd" clip-rule="evenodd" d="M32.5 5.16666C17.55 5.16666 5.41669 16.74 5.41669 31C5.41669 45.26 17.55 56.8333 32.5 56.8333C47.45 56.8333 59.5834 45.26 59.5834 31C59.5834 16.74 47.45 5.16666 32.5 5.16666ZM32.5 51.6667C20.5563 51.6667 10.8334 42.3925 10.8334 31C10.8334 19.6075 20.5563 10.3333 32.5 10.3333C44.4438 10.3333 54.1667 19.6075 54.1667 31C54.1667 42.3925 44.4438 51.6667 32.5 51.6667ZM43.3334 31L27.0834 42.625V19.375L43.3334 31Z" fill="white"/>
</g>
</svg>
